<?xml version="1.0" encoding="utf-8"?>
<!-- Generator: Adobe Illustrator 17.0.0, SVG Export Plug-In . SVG Version: 6.00 Build 0)  -->
<!DOCTYPE svg PUBLIC "-//W3C//DTD SVG 1.1//EN" "http://www.w3.org/Graphics/SVG/1.1/DTD/svg11.dtd">
<svg version="1.1" id="Layer_1" xmlns="http://www.w3.org/2000/svg" xmlns:xlink="http://www.w3.org/1999/xlink" x="0px" y="0px"
	 width="24px" height="24px" viewBox="0 0 24 24" enable-background="new 0 0 24 24" xml:space="preserve">
<path fill="none" d="M0,0h24v24H0V0z"/>
<path fill="#999999" d="M6,19c0,1.1,0.9,2,2,2h8c1.1,0,2-0.9,2-2V7H6V19z M8.46,11.88l1.41-1.41L12,12.59l2.12-2.12l1.41,1.41
	L13.41,14l2.12,2.12l-1.41,1.41L12,15.41l-2.12,2.12l-1.41-1.41L10.59,14L8.46,11.88z M15.5,4l-1-1h-5l-1,1H5v2h14V4H15.5z"/>
<path fill="none" d="M0,0h24v24H0V0z"/>
</svg>
